<svg xmlns="http://www.w3.org/2000/svg" width="32" height="32" viewBox="0 0 32 32">
  <circle cx="16" cy="16" r="15" fill="#0d9488" stroke="#0a7c72" stroke-width="1"/>
  <path d="M16 8c-3.5 0-6 2-6 5 0 1.5 0.5 2.5 1.5 3.5-0.5 0.5-1 1.5-1 2.5 0 2 1.5 3 3 3.5 0 0.5 0.5 1.5 2.5 1.5s2.5-1 2.5-1.5c1.5-0.5 3-1.5 3-3.5 0-1-0.5-2-1-2.5 1-1 1.5-2 1.5-3.5 0-3-2.5-5-6-5z" fill="none" stroke="white" stroke-width="1.5" stroke-linecap="round" stroke-linejoin="round"/>
  <circle cx="13" cy="14" r="1" fill="white"/>
  <circle cx="19" cy="14" r="1" fill="white"/>
  <path d="M12 17c0 0 1.5 2 4 2s4-2 4-2" fill="none" stroke="white" stroke-width="1" stroke-linecap="round"/>
</svg>
